<?xml version="1.0" encoding="UTF-8" standalone="no"?>
<!-- Created with Inkscape (http://www.inkscape.org/) -->

<svg
   width="829.71613mm"
   height="158.75mm"
   viewBox="0 0 829.71613 158.75"
   version="1.1"
   id="svg5"
   xmlns="http://www.w3.org/2000/svg"
   xmlns:svg="http://www.w3.org/2000/svg">
  <defs
     id="defs2" />
  <g
     id="layer1"
     transform="translate(-20.329954,-20.624998)">
    <g
       id="g138"
       transform="matrix(9.3382354,0,0,9.3382354,20.329955,20.624999)">
      <rect
         fill="#0d2c03"
         width="1"
         height="17"
         x="0"
         y="0"
         id="rect124" />
      <rect
         fill="#238533"
         width="17"
         height="1"
         x="0"
         y="0"
         id="rect126" />
      <rect
         fill="#b75f35"
         width="1"
         height="17"
         x="16"
         y="0"
         id="rect128" />
      <rect
         fill="#69811c"
         width="17"
         height="1"
         x="0"
         y="16"
         id="rect130" />
      <rect
         fill="#0f102d"
         width="3"
         height="4"
         x="2"
         y="2"
         id="rect132" />
      <rect
         fill="#ac7453"
         width="13"
         height="1"
         x="2"
         y="10"
         id="rect134" />
      <rect
         fill="#240d83"
         width="3"
         height="4"
         x="12"
         y="2"
         id="rect136" />
    </g>
    <g
       id="g375"
       transform="matrix(9.3382354,0,0,9.3382354,188.41819,20.624999)">
      <rect
         fill="#10f8a0"
         width="1"
         height="17"
         x="0"
         y="0"
         id="rect361" />
      <rect
         fill="#155a9e"
         width="17"
         height="1"
         x="0"
         y="0"
         id="rect363" />
      <rect
         fill="#ad9b09"
         width="1"
         height="17"
         x="16"
         y="0"
         id="rect365" />
      <rect
         fill="#2aeca7"
         width="17"
         height="1"
         x="0"
         y="16"
         id="rect367" />
      <rect
         fill="#807bd7"
         width="3"
         height="4"
         x="2"
         y="2"
         id="rect369" />
      <rect
         fill="#040b48"
         width="13"
         height="1"
         x="2"
         y="10"
         id="rect371" />
      <rect
         fill="#cdc19d"
         width="3"
         height="4"
         x="12"
         y="2"
         id="rect373" />
    </g>
    <g
       id="g508"
       transform="matrix(9.3382354,0,0,9.3382354,356.50642,20.624999)">
      <rect
         fill="#af1f27"
         width="1"
         height="17"
         x="0"
         y="0"
         id="rect494" />
      <rect
         fill="#3e241d"
         width="17"
         height="1"
         x="0"
         y="0"
         id="rect496" />
      <rect
         fill="#17e543"
         width="1"
         height="17"
         x="16"
         y="0"
         id="rect498" />
      <rect
         fill="#0f9970"
         width="17"
         height="1"
         x="0"
         y="16"
         id="rect500" />
      <rect
         fill="#83285b"
         width="3"
         height="4"
         x="2"
         y="2"
         id="rect502" />
      <rect
         fill="#b6fedd"
         width="13"
         height="1"
         x="2"
         y="10"
         id="rect504" />
      <rect
         fill="#40d8c7"
         width="3"
         height="4"
         x="12"
         y="2"
         id="rect506" />
    </g>
    <g
       id="g655"
       transform="matrix(9.3382354,0,0,9.3382354,524.59465,20.624999)">
      <rect
         fill="#990088"
         width="1"
         height="17"
         x="0"
         y="0"
         id="rect641" />
      <rect
         fill="#55b86d"
         width="17"
         height="1"
         x="0"
         y="0"
         id="rect643" />
      <rect
         fill="#240d65"
         width="1"
         height="17"
         x="16"
         y="0"
         id="rect645" />
      <rect
         fill="#f4cb4f"
         width="17"
         height="1"
         x="0"
         y="16"
         id="rect647" />
      <rect
         fill="#0664f3"
         width="3"
         height="4"
         x="2"
         y="2"
         id="rect649" />
      <rect
         fill="#484b32"
         width="13"
         height="1"
         x="2"
         y="10"
         id="rect651" />
      <rect
         fill="#1c2529"
         width="3"
         height="4"
         x="12"
         y="2"
         id="rect653" />
    </g>
    <g
       id="g788"
       transform="matrix(9.3382354,0,0,9.3382354,691.29611,20.624999)">
      <rect
         fill="#7396ca"
         width="1"
         height="17"
         x="0"
         y="0"
         id="rect774" />
      <rect
         fill="#d418de"
         width="17"
         height="1"
         x="0"
         y="0"
         id="rect776" />
      <rect
         fill="#09207e"
         width="1"
         height="17"
         x="16"
         y="0"
         id="rect778" />
      <rect
         fill="#fe7cf9"
         width="17"
         height="1"
         x="0"
         y="16"
         id="rect780" />
      <rect
         fill="#fed841"
         width="3"
         height="4"
         x="2"
         y="2"
         id="rect782" />
      <rect
         fill="#127be8"
         width="13"
         height="1"
         x="2"
         y="10"
         id="rect784" />
      <rect
         fill="#13e245"
         width="3"
         height="4"
         x="12"
         y="2"
         id="rect786" />
    </g>
  </g>
</svg>
